<svg width="35" height="35" viewBox="0 0 35 35" fill="none" xmlns="http://www.w3.org/2000/svg">
<rect opacity="0.1" width="35" height="35" fill="white"/>
<g clip-path="url(#clip0_780_2421)">
<path d="M12.3112 10.8125C11.2113 10.8125 10.4922 11.5348 10.4922 12.4841C10.4922 13.4124 11.1899 14.1553 12.269 14.1553H12.2899C13.4113 14.1553 14.1092 13.4124 14.1092 12.4841C14.0883 11.5348 13.4113 10.8125 12.3112 10.8125Z" fill="#999999"/>
<path d="M10.6824 15.4766H13.8979V25.1506H10.6824V15.4766Z" fill="#999999"/>
<path d="M21.7905 15.249C20.0558 15.249 18.8926 16.879 18.8926 16.879V15.4761H15.677V25.1501H18.8924V19.7478C18.8924 19.4585 18.9134 19.1698 18.9984 18.963C19.2308 18.3854 19.7598 17.7871 20.6481 17.7871C21.8117 17.7871 22.2771 18.6743 22.2771 19.9748V25.1501H25.4923V19.6032C25.4923 16.6317 23.9059 15.249 21.7905 15.249Z" fill="#999999"/>
</g>
<defs>
<clipPath id="clip0_780_2421">
<rect width="16" height="16" fill="white" transform="translate(10 10)"/>
</clipPath>
</defs>
</svg>
