<svg width="35" height="35" viewBox="0 0 35 35" fill="none" xmlns="http://www.w3.org/2000/svg">
<rect opacity="0.1" width="35" height="35" fill="white"/>
<g clip-path="url(#clip0_780_2415)">
<path d="M25.9843 14.704C25.9468 13.8539 25.8093 13.2694 25.6124 12.763C25.4092 12.2254 25.0967 11.7441 24.6872 11.344C24.2871 10.9377 23.8026 10.6219 23.2712 10.422C22.7619 10.225 22.1804 10.0875 21.3303 10.0501C20.4738 10.0094 20.2019 10 18.0296 10C15.8573 10 15.5854 10.0094 14.7321 10.0469C13.882 10.0844 13.2975 10.222 12.7912 10.4188C12.2535 10.6219 11.7722 10.9345 11.3721 11.344C10.9658 11.7441 10.6501 12.2286 10.45 12.7599C10.2531 13.2694 10.1156 13.8507 10.0781 14.7009C10.0375 15.5574 10.0281 15.8293 10.0281 18.0016C10.0281 20.1739 10.0375 20.4458 10.075 21.2991C10.1124 22.1492 10.25 22.7337 10.447 23.2401C10.6501 23.7777 10.9658 24.259 11.3721 24.6591C11.7722 25.0654 12.2567 25.3812 12.788 25.5812C13.2975 25.7781 13.8788 25.9156 14.7291 25.9531C15.5822 25.9907 15.8543 26 18.0266 26C20.1989 26 20.4708 25.9907 21.3241 25.9531C22.1742 25.9156 22.7587 25.7781 23.265 25.5812C24.3403 25.1654 25.1904 24.3153 25.6062 23.2401C25.803 22.7306 25.9406 22.1492 25.9781 21.2991C26.0155 20.4458 26.0249 20.1739 26.0249 18.0016C26.0249 15.8293 26.0218 15.5574 25.9843 14.704ZM24.5435 21.2366C24.509 22.018 24.3778 22.4399 24.2684 22.7212C23.9995 23.4183 23.4463 23.9715 22.7493 24.2403C22.468 24.3497 22.043 24.481 21.2646 24.5153C20.4207 24.5529 20.1676 24.5622 18.0328 24.5622C15.898 24.5622 15.6417 24.5529 14.8008 24.5153C14.0194 24.481 13.5975 24.3497 13.3162 24.2403C12.9693 24.1121 12.6536 23.909 12.3973 23.6433C12.1316 23.3838 11.9285 23.0713 11.8003 22.7244C11.6909 22.4431 11.5596 22.018 11.5253 21.2397C11.4877 20.3958 11.4784 20.1426 11.4784 18.0078C11.4784 15.873 11.4877 15.6167 11.5253 14.776C11.5596 13.9946 11.6909 13.5726 11.8003 13.2913C11.9285 12.9443 12.1316 12.6287 12.4005 12.3723C12.6598 12.1066 12.9724 11.9034 13.3194 11.7754C13.6007 11.666 14.0258 11.5347 14.804 11.5003C15.6479 11.4628 15.9012 11.4534 18.0358 11.4534C20.1738 11.4534 20.4269 11.4628 21.2678 11.5003C22.0492 11.5347 22.4712 11.666 22.7525 11.7754C23.0993 11.9034 23.4151 12.1066 23.6713 12.3723C23.937 12.6317 24.1402 12.9443 24.2684 13.2913C24.3778 13.5726 24.509 13.9976 24.5435 14.776C24.5809 15.6199 24.5903 15.873 24.5903 18.0078C24.5903 20.1426 24.5809 20.3927 24.5435 21.2366Z" fill="#999999"/>
<path d="M18.0296 13.8916C15.7605 13.8916 13.9194 15.7325 13.9194 18.0018C13.9194 20.271 15.7605 22.112 18.0296 22.112C20.2988 22.112 22.1398 20.271 22.1398 18.0018C22.1398 15.7325 20.2988 13.8916 18.0296 13.8916ZM18.0296 20.668C16.5575 20.668 15.3634 19.474 15.3634 18.0018C15.3634 16.5296 16.5575 15.3356 18.0296 15.3356C19.5018 15.3356 20.6958 16.5296 20.6958 18.0018C20.6958 19.474 19.5018 20.668 18.0296 20.668Z" fill="#999999"/>
<path d="M23.262 13.7291C23.262 14.259 22.8323 14.6886 22.3023 14.6886C21.7724 14.6886 21.3428 14.259 21.3428 13.7291C21.3428 13.1991 21.7724 12.7695 22.3023 12.7695C22.8323 12.7695 23.262 13.1991 23.262 13.7291Z" fill="#999999"/>
</g>
<defs>
<clipPath id="clip0_780_2415">
<rect width="16" height="16" fill="white" transform="translate(10 10)"/>
</clipPath>
</defs>
</svg>
